<?xml version="1.0" encoding="UTF-8"?>
<svg width="42px" height="42px" viewBox="0 0 42 42" version="1.1" xmlns="http://www.w3.org/2000/svg" xmlns:xlink="http://www.w3.org/1999/xlink">
    <!-- Generator: Sketch 48.2 (47327) - http://www.bohemiancoding.com/sketch -->
    <title>ic_booking</title>
    <desc>Created with Sketch.</desc>
    <defs></defs>
    <g id="Dashboard---Configure" stroke="none" stroke-width="1" fill="none" fill-rule="evenodd" transform="translate(-19.000000, -189.000000)">
        <g id="ic_booking" transform="translate(20.000000, 190.000000)">
            <circle id="Oval-5-Copy" stroke="#979797" fill="#FFFFFF" cx="20" cy="20" r="20"></circle>
            <g id="ic_overallBooking-Copy" transform="translate(10.000000, 10.000000)">
                <polygon id="Shape" points="0 0 20 0 20 20 0 20"></polygon>
                <path d="M11.6666667,1.66666667 L5,1.66666667 C4.08333333,1.66666667 3.34166667,2.41666667 3.34166667,3.33333333 L3.33333333,16.6666667 C3.33333333,17.5833333 4.075,18.3333333 4.99166667,18.3333333 L15,18.3333333 C15.9166667,18.3333333 16.6666667,17.5833333 16.6666667,16.6666667 L16.6666667,6.66666667 L11.6666667,1.66666667 Z M13.3333333,15 L6.66666667,15 L6.66666667,13.3333333 L13.3333333,13.3333333 L13.3333333,15 Z M13.3333333,11.6666667 L6.66666667,11.6666667 L6.66666667,10 L13.3333333,10 L13.3333333,11.6666667 Z M10.8333333,7.5 L10.8333333,2.91666667 L15.4166667,7.5 L10.8333333,7.5 Z" id="Shape" fill-opacity="0.5" fill="#000000" fill-rule="nonzero"></path>
            </g>
        </g>
    </g>
</svg>