<?xml version="1.0" encoding="UTF-8"?>
<svg width="40px" height="40px" viewBox="0 0 40 40" version="1.1" xmlns="http://www.w3.org/2000/svg" xmlns:xlink="http://www.w3.org/1999/xlink">
    <!-- Generator: Sketch 49.2 (51160) - http://www.bohemiancoding.com/sketch -->
    <title>ic_bookingSelected</title>
    <desc>Created with Sketch.</desc>
    <defs></defs>
    <g id="Web-Portal-Wireframe" stroke="none" stroke-width="1" fill="none" fill-rule="evenodd">
        <g id="ic_bookingSelected">
            <circle id="Oval-5-Copy" fill="#29ABE2" cx="20" cy="20" r="20"></circle>
            <g id="noun_1094614_cc" transform="translate(11.000000, 10.000000)" fill="#FFFFFF">
                <path d="M14.0348387,2 L12.9851613,2 L12.9851613,3.64225806 C12.9851613,4.31258065 12.4422581,4.85580645 11.7719355,4.85580645 C11.1016129,4.85580645 10.5587097,4.31225806 10.5587097,3.64225806 L10.5587097,2 L5.83677419,2 L5.83677419,3.64225806 C5.83677419,4.31258065 5.29419355,4.85580645 4.62387097,4.85580645 C3.95354839,4.85580645 3.41064516,4.31225806 3.41064516,3.64225806 L3.41064516,2 L2.36096774,2 C1.05709677,2 0,3.05709677 0,4.36096774 L0,16.6248387 C0,17.9290323 1.05709677,18.9854839 2.36096774,18.9854839 L13.3958065,18.9854839 C15.0526607,18.9854839 16.3958065,17.6423381 16.3958065,15.9854839 L16.3958065,10.0754839 L16.3958065,4.36064516 C16.3958065,3.05709677 15.3390323,2 14.0348387,2 Z M7.92448093,13.033871 L3.76594893,13.033871 C3.51223411,13.033871 3.30660555,12.7841935 3.30660555,12.476129 C3.30660555,12.1680645 3.51196844,11.9183871 3.76594893,11.9183871 L7.92448093,11.9183871 C8.17819575,11.9183871 8.3838243,12.1680645 8.3838243,12.476129 C8.3838243,12.7841935 8.17819575,13.033871 7.92448093,13.033871 Z M12.6647369,9.60677419 L3.69962479,9.60677419 C3.48254361,9.60677419 3.30660555,9.35774194 3.30660555,9.04903226 C3.30660555,8.74129032 3.4823163,8.49193548 3.69962479,8.49193548 L12.6647369,8.49193548 C12.8815908,8.49193548 13.0577562,8.74096774 13.0577562,9.04903226 C13.0577562,9.35741935 12.8818181,9.60677419 12.6647369,9.60677419 Z" id="Shape"></path>
                <path d="M5.34280557,3.14741935 C5.34280557,3.54580645 5.01957976,3.86903226 4.62119267,3.86903226 C4.22312815,3.86903226 3.89990234,3.54612903 3.89990234,3.14741935 L3.89990234,0.721290323 C3.89990234,0.322903226 4.22312815,0 4.62119267,0 C5.01957976,0 5.34280557,0.322903226 5.34280557,0.721290323 L5.34280557,3.14741935 Z" id="Shape"></path>
                <path d="M12.5423557,3.14741935 C12.5423557,3.54580645 12.2194525,3.86903226 11.8210654,3.86903226 C11.4226783,3.86903226 11.1000977,3.54612903 11.1000977,3.14741935 L11.1000977,0.721290323 C11.1000977,0.322903226 11.4226783,0 11.8210654,0 C12.2194525,0 12.5423557,0.322903226 12.5423557,0.721290323 L12.5423557,3.14741935 Z" id="Shape"></path>
            </g>
        </g>
    </g>
</svg>