<?xml version="1.0" encoding="UTF-8"?>
<svg width="42px" height="42px" viewBox="0 0 42 42" version="1.1" xmlns="http://www.w3.org/2000/svg" xmlns:xlink="http://www.w3.org/1999/xlink">
    <!-- Generator: Sketch 48.2 (47327) - http://www.bohemiancoding.com/sketch -->
    <title>ic_customer</title>
    <desc>Created with Sketch.</desc>
    <defs></defs>
    <g id="Dashboard---Configure" stroke="none" stroke-width="1" fill="none" fill-rule="evenodd" transform="translate(-20.000000, -444.000000)">
        <g id="ic_customer" transform="translate(21.000000, 445.000000)">
            <circle id="Oval-5" stroke="#979797" cx="20" cy="20" r="20"></circle>
            <g id="ic_people_black_24px" transform="translate(9.166667, 9.166667)">
                <polygon id="Shape" points="0 0 21.6666667 0 21.6666667 21.6666667 0 21.6666667"></polygon>
                <path d="M14.4444444,9.93055556 C15.9430556,9.93055556 17.14375,8.72083333 17.14375,7.22222222 C17.14375,5.72361111 15.9430556,4.51388889 14.4444444,4.51388889 C12.9458333,4.51388889 11.7361111,5.72361111 11.7361111,7.22222222 C11.7361111,8.72083333 12.9458333,9.93055556 14.4444444,9.93055556 Z M7.22222222,9.93055556 C8.72083333,9.93055556 9.92152778,8.72083333 9.92152778,7.22222222 C9.92152778,5.72361111 8.72083333,4.51388889 7.22222222,4.51388889 C5.72361111,4.51388889 4.51388889,5.72361111 4.51388889,7.22222222 C4.51388889,8.72083333 5.72361111,9.93055556 7.22222222,9.93055556 Z M7.22222222,11.7361111 C5.11875,11.7361111 0.902777778,12.7923611 0.902777778,14.8958333 L0.902777778,17.1527778 L13.5416667,17.1527778 L13.5416667,14.8958333 C13.5416667,12.7923611 9.32569444,11.7361111 7.22222222,11.7361111 Z M14.4444444,11.7361111 C14.1826389,11.7361111 13.8847222,11.7541667 13.56875,11.78125 C14.6159722,12.5395833 15.3472222,13.5597222 15.3472222,14.8958333 L15.3472222,17.1527778 L20.7638889,17.1527778 L20.7638889,14.8958333 C20.7638889,12.7923611 16.5479167,11.7361111 14.4444444,11.7361111 Z" id="Shape" fill="#7F7F7F" fill-rule="nonzero"></path>
            </g>
        </g>
    </g>
</svg>