<?xml version="1.0" encoding="UTF-8"?>
<svg width="42px" height="42px" viewBox="0 0 42 42" version="1.1" xmlns="http://www.w3.org/2000/svg" xmlns:xlink="http://www.w3.org/1999/xlink">
    <!-- Generator: Sketch 48.2 (47327) - http://www.bohemiancoding.com/sketch -->
    <title>ic_configure</title>
    <desc>Created with Sketch.</desc>
    <defs></defs>
    <g id="Dashboard---Configure" stroke="none" stroke-width="1" fill="none" fill-rule="evenodd" transform="translate(-19.000000, -793.000000)">
        <g id="ic_configure" transform="translate(20.000000, 794.000000)">
            <circle id="Oval-5" stroke="#979797" cx="20" cy="20" r="20"></circle>
            <g id="ic_settings_black_24px" transform="translate(9.000000, 9.000000)">
                <polygon id="Shape" points="0 0 22 0 22 22 0 22"></polygon>
                <path d="M17.8766355,11.882 C17.9136455,11.594 17.9414029,11.306 17.9414029,11 C17.9414029,10.694 17.9136455,10.406 17.8766355,10.118 L19.8289086,8.633 C20.0047057,8.498 20.0509681,8.255 19.9399384,8.057 L18.0894426,4.943 C17.9784128,4.745 17.7285959,4.673 17.5250413,4.745 L15.2211741,5.645 C14.7400452,5.285 14.2219063,4.988 13.6575051,4.763 L13.3059109,2.378 C13.2781535,2.162 13.0838514,2 12.8525394,2 L9.15154784,2 C8.92023586,2 8.7259338,2.162 8.69817637,2.378 L8.34658216,4.763 C7.78218094,4.988 7.26404212,5.294 6.78291321,5.645 L4.47904594,4.745 C4.26623892,4.664 4.02567447,4.745 3.91464472,4.943 L2.06414892,8.057 C1.94386669,8.255 1.99938157,8.498 2.17517867,8.633 L4.12745174,10.118 C4.09044182,10.406 4.06268439,10.703 4.06268439,11 C4.06268439,11.297 4.09044182,11.594 4.12745174,11.882 L2.17517867,13.367 C1.99938157,13.502 1.95311917,13.745 2.06414892,13.943 L3.91464472,17.057 C4.02567447,17.255 4.2754914,17.327 4.47904594,17.255 L6.78291321,16.355 C7.26404212,16.715 7.78218094,17.012 8.34658216,17.237 L8.69817637,19.622 C8.7259338,19.838 8.92023586,20 9.15154784,20 L12.8525394,20 C13.0838514,20 13.2781535,19.838 13.3059109,19.622 L13.6575051,17.237 C14.2219063,17.012 14.7400452,16.706 15.2211741,16.355 L17.5250413,17.255 C17.7378483,17.336 17.9784128,17.255 18.0894426,17.057 L19.9399384,13.943 C20.0509681,13.745 20.0047057,13.502 19.8289086,13.367 L17.8766355,11.882 Z M11.0020436,14.15 C9.21631519,14.15 7.76367599,12.737 7.76367599,11 C7.76367599,9.263 9.21631519,7.85 11.0020436,7.85 C12.7877721,7.85 14.2404113,9.263 14.2404113,11 C14.2404113,12.737 12.7877721,14.15 11.0020436,14.15 Z" id="Shape" fill-opacity="0.5" fill="#000000" fill-rule="nonzero"></path>
            </g>
        </g>
    </g>
</svg>