<?xml version="1.0" encoding="UTF-8"?>
<svg width="151px" height="50px" viewBox="0 0 151 50" version="1.1" xmlns="http://www.w3.org/2000/svg" xmlns:xlink="http://www.w3.org/1999/xlink">
    <!-- Generator: Sketch 48.2 (47327) - http://www.bohemiancoding.com/sketch -->
    <title>ic_dashboardLogo</title>
    <desc>Created with Sketch.</desc>
    <defs></defs>
    <g id="View-Booking" stroke="none" stroke-width="1" fill="none" fill-rule="evenodd" transform="translate(-22.000000, -10.000000)">
        <g id="ic_dashboardLogo" transform="translate(24.000000, 12.000000)">
            <g id="Group-2" transform="translate(53.000000, 6.000000)" fill="#293A4B">
                <g id="Icon" fill-rule="nonzero">
                    <g id="Asset-2" transform="translate(0.000000, 0.845390)">
                        <path d="M1.30619335,16.1120298 C1.14102435,16.0995687 0.983842069,16.0358507 0.85652023,15.9297428 C0.685216184,15.8082181 0.600277928,15.5737469 0.601705461,15.2263293 C0.570701196,14.953709 0.671783161,14.6826848 0.873650634,14.4971811 C0.992076215,14.3848376 1.1411169,14.310204 1.30191075,14.2827258 L6.44103213,14.2827258 C6.95049595,14.290832 7.44189396,14.0938197 7.80504059,13.7358646 C8.18333703,13.3712906 8.37319901,12.8473047 8.37462654,12.163907 C8.39168869,11.6637694 8.21172132,11.1769653 7.87356221,10.8085492 C7.45978358,10.4002217 6.96320823,10.0857338 6.41747782,9.88639126 L3.3532767,8.5953701 C2.91359631,8.41379791 2.5046079,8.22364751 2.12631147,8.02491889 C1.75843523,7.83570212 1.42361856,7.58801044 1.1348893,7.29148162 C0.848047768,6.99424392 0.62055941,6.64485002 0.464662225,6.26209598 C0.283224702,5.77789498 0.198115811,5.26282324 0.214130057,4.74589671 C0.210940586,4.23462401 0.296435435,3.72668073 0.466803525,3.24470932 C0.783658432,2.32021146 1.48742322,1.58013589 2.39397404,1.21810634 C2.90790749,1.01294757 3.45748868,0.912341718 4.01065597,0.92215797 L8.74078894,0.92215797 C8.91796878,0.939974414 9.0832302,1.01969372 9.20759247,1.14733608 C9.3948035,1.3321063 9.49049484,1.5905512 9.46883114,1.85289415 C9.46883114,2.21746823 9.38532042,2.45622851 9.21829897,2.56917499 C9.08007902,2.67334306 8.91360534,2.73315529 8.74078894,2.74073927 L4.01065597,2.74073927 C3.7603743,2.73916397 3.51248201,2.78954794 3.28261378,2.88871345 C3.05502951,2.98748548 2.84690557,3.12620345 2.66806052,3.29832316 C2.48532956,3.47661345 2.33976197,3.68946498 2.2398004,3.92453275 C2.13183577,4.17499023 2.07714181,4.44522366 2.07920286,4.71801752 C2.05415763,5.17210405 2.20791867,5.61791848 2.50746297,5.95971395 C2.85391989,6.3001881 3.26540894,6.56715054 3.7172978,6.7446205 L6.63589048,7.97559416 C7.06557813,8.16145546 7.49883461,8.36232863 7.93565993,8.57821367 C8.35667074,8.78749893 8.74832738,9.0514035 9.10052744,9.36312022 C9.86582772,10.040826 10.2851381,11.0280568 10.2418406,12.0502457 C10.2454074,12.5764242 10.1622053,13.0995823 9.99559108,13.5986132 C9.83915623,14.0692258 9.59501615,14.5058525 9.27611409,14.8853453 C8.9537508,15.2628732 8.55338397,15.5657996 8.10268137,15.7731904 C7.5962697,16.0015141 7.04553762,16.1143184 6.49028204,16.1034516 L1.30619335,16.1120298 Z" id="Shape"></path>
                        <path d="M20.6806809,16.2256912 C20.4264749,16.2431059 20.1760997,16.156425 19.9868996,15.9855012 C19.8440352,15.8618492 19.7574725,15.6853647 19.7470739,15.496543 L19.7470739,9.57543101 C19.7571536,9.23146396 19.6913514,8.88950448 19.5543568,8.57392456 C19.4358924,8.31474726 19.2610314,8.08539737 19.042586,7.90267934 C18.8259297,7.72616838 18.5740264,7.59819724 18.3038373,7.5273825 C18.018201,7.45091885 17.7237073,7.4126991 17.4280454,7.41372116 L14.1989641,7.41372116 L14.1989641,15.4986875 C14.1918805,15.6829255 14.1153695,15.8576355 13.984834,15.9876457 C13.7984989,16.1633701 13.5459655,16.2507982 13.2910527,16.2278357 C13.0315623,16.2480197 12.7743826,16.1665198 12.573717,16.000513 C12.4269822,15.8745911 12.3405764,15.6921615 12.3360326,15.4986875 L12.3360326,0.965049038 C12.3461256,0.776616246 12.4318473,0.600271769 12.573717,0.476090859 C12.7704568,0.303656404 13.0282516,0.217851934 13.2889114,0.238045429 C13.5435382,0.214231742 13.7961392,0.300902438 13.9826927,0.476090859 C14.1130499,0.606223343 14.1895286,0.780859583 14.1968228,0.965049038 L14.1968228,5.58870621 L17.5415343,5.58870621 C18.7849162,5.58870621 19.774197,5.91896743 20.5093769,6.57948989 C21.2445568,7.24001234 21.6121467,8.24080393 21.6121467,9.58186467 L21.6121467,15.4793866 C21.6086423,15.6713322 21.5320426,15.8546837 21.3980166,15.9919348 C21.2027909,16.1681528 20.9420656,16.2531147 20.6806809,16.2256912 Z" id="Shape"></path>
                        <path d="M32.6419859,18.5482425 C32.2418502,19.4963125 31.4427892,20.2180521 30.4600007,20.5190871 C29.9374649,20.682306 29.3928054,20.7633332 28.84546,20.7592771 L25.5007485,20.7592771 C25.3145456,20.7505379 25.1392193,20.6689027 25.012532,20.5319544 C24.8391817,20.3398708 24.7531191,20.0843968 24.7748476,19.8263963 C24.7520025,19.5868656 24.8395163,19.3499824 25.012532,19.1830303 C25.1551314,19.0603877 25.3363504,18.9920426 25.5243028,18.9900205 L28.8219057,18.9900205 C29.4063161,19.0071809 29.9780406,18.8173291 30.4364464,18.4538822 C30.8761267,18.0964566 31.0959669,17.5388727 31.0959669,16.7811305 L31.0959669,16.1120298 L27.776951,16.1120298 C27.220713,16.120696 26.6667601,16.038853 26.1367148,15.8696953 C25.6565369,15.7145346 25.2148961,15.4586517 24.841228,15.1191016 C24.4659388,14.7709088 24.1732707,14.3429642 23.9847077,13.8666824 C23.7697306,13.3074337 23.6657205,12.7115628 23.6785017,12.1124377 L23.6785017,6.20419304 C23.677643,6.00820739 23.754687,5.81993453 23.8926318,5.680922 C24.0827436,5.51265342 24.3337579,5.4304067 24.5864132,5.45359934 C24.8436311,5.43785515 25.096701,5.52413749 25.2909011,5.69378932 C25.4427522,5.82168308 25.5337149,6.00777795 25.5414332,6.20633759 L25.5414332,12.1038595 C25.531826,12.4519508 25.5975706,12.7979999 25.7341503,13.1182333 C25.8498493,13.3827059 26.024994,13.6168316 26.2459211,13.8023458 C26.4614739,13.9776053 26.7118631,14.1048179 26.9803872,14.1754981 C27.2594797,14.2518464 27.5475925,14.2900793 27.8369075,14.2891594 L31.089543,14.2891594 L31.089543,6.20419304 C31.0944365,6.0099795 31.1760678,5.82564431 31.3165209,5.69164477 C31.5078285,5.51702782 31.7630577,5.4300093 32.0210088,5.45145479 C32.27303,5.43363612 32.5220183,5.51521899 32.7147902,5.67877745 C32.8653884,5.81111247 32.9526039,6.00140629 32.9546158,6.20204848 L32.9546158,16.8175879 C32.970889,17.4099074 32.8644415,17.9991787 32.6419859,18.5482425 Z" id="Shape"></path>
                        <path d="M48.4683385,14.334195 C48.6686452,14.3413506 48.8592675,14.4222973 49.0036636,14.5615177 C49.1884575,14.7389907 49.2842902,14.9899504 49.2649023,15.2456302 C49.2855622,15.4956067 49.1936875,15.7417645 49.0143701,15.9168755 C48.8650869,16.0535027 48.6705609,16.1299033 48.4683385,16.1313308 L47.0593627,16.1313308 C46.5431771,16.1387273 46.0289373,16.0663929 45.5347567,15.9168755 C45.1014236,15.7856701 44.7042279,15.5559448 44.3741718,15.2456302 C44.0401939,14.917458 43.7872441,14.515795 43.6354231,14.0725595 C43.4496025,13.5201927 43.3612036,12.9396469 43.3741844,12.3569168 L43.3741844,7.29148162 L38.0080852,7.29148162 L38.0080852,15.496543 C38.0030025,15.6903556 37.9157918,15.8728405 37.7682595,15.9983685 C37.5659531,16.1659842 37.3061483,16.2475852 37.0444999,16.2256912 C36.7918446,16.2488838 36.5408303,16.1666371 36.3507185,15.9983685 C36.2156248,15.8662161 36.1385821,15.6856622 36.1365885,15.496543 L36.1365885,7.29148162 L35.1815684,7.29148162 C34.9944404,7.28176117 34.8168517,7.20575329 34.6805041,7.07702628 C34.507774,6.90964574 34.4189891,6.67357558 34.4385371,6.43366025 C34.4123017,6.18501664 34.5005772,5.93794339 34.6783628,5.76241503 C34.8210569,5.6399326 35.0022155,5.57161025 35.1901336,5.56940523 L36.1451537,5.56940523 L36.1451537,4.22262568 C36.1316438,3.63790588 36.2282602,3.055872 36.4299467,2.50698295 C36.6011173,2.05632712 36.8736932,1.65124525 37.2265105,1.32318946 C37.5836089,1.00290896 38.0069781,0.765637803 38.4663235,0.628354151 C38.9811858,0.471077746 39.5169028,0.392984319 40.0551685,0.396742382 L41.5797745,0.396742382 C41.7800812,0.403897973 41.9707036,0.484844624 42.1150997,0.624065045 C42.2998935,0.801538009 42.3957262,1.0524977 42.3763384,1.30817758 C42.3958581,1.56601103 42.2955124,1.81844348 42.1043932,1.99229013 C41.9623212,2.12720564 41.7773378,2.20768937 41.5819158,2.21961279 L40.1044184,2.21961279 C39.8254772,2.21709981 39.5470333,2.24369279 39.2735938,2.29896126 C39.0327401,2.34784206 38.8067871,2.45290819 38.6140732,2.6056324 C38.4151533,2.76767457 38.2610649,2.97811431 38.1665414,3.21683013 C38.0505337,3.52560255 37.9966806,3.85431375 38.0080852,4.18402372 L38.0080852,5.57583889 L43.3741844,5.57583889 L43.3741844,2.35900876 C43.376178,2.16988952 43.4532207,1.9893357 43.5883145,1.85718326 C43.7784263,1.68891468 44.0294406,1.60666796 44.2820959,1.6298606 C44.5309082,1.61393694 44.7762891,1.69457484 44.9673121,1.85503871 C45.1185902,1.97946178 45.2090851,2.16307045 45.2157029,2.35900876 L45.2157029,5.57583889 L47.7617093,5.57583889 C47.9456678,5.58293326 48.1201128,5.65956045 48.2499258,5.79029423 C48.4233145,5.96860187 48.5108276,6.21354124 48.4897515,6.46153945 C48.518202,6.70726129 48.4293275,6.95203749 48.2499258,7.1220619 C48.112108,7.23577309 47.9402185,7.29995207 47.7617093,7.30434894 L45.2392572,7.30434894 L45.2392572,12.2368218 C45.2392572,13.0117204 45.4212678,13.5542925 45.7852889,13.8645378 C46.2120629,14.1967329 46.7445594,14.3628194 47.2841993,14.3320505 L48.4683385,14.334195 Z" id="Shape"></path>
                        <path d="M61.2411964,16.1120298 C60.7058912,16.1167277 60.174148,16.0244576 59.6716231,15.8396715 C59.1942807,15.6612537 58.7626808,15.378456 58.4082558,15.0118739 C58.0260488,14.6076667 57.7340791,14.126647 57.5517355,13.6007578 C57.3332058,12.9598318 57.2281307,12.2856042 57.2412469,11.6084676 L57.2412469,5.45359934 C57.2276358,4.7744556 57.3409299,4.09874978 57.5752898,3.46130922 C57.7718095,2.93291245 58.0775506,2.45204551 58.4724948,2.05019307 C58.8391413,1.68476333 59.2762948,1.3979928 59.7572751,1.20738357 C60.2384986,1.01689083 60.7515884,0.920085446 61.2690333,0.92215797 L66.0227206,0.92215797 C66.5937341,0.92215797 66.8792408,1.2259697 66.8792408,1.83359317 C66.8792408,2.44121664 66.5937341,2.74502837 66.0227206,2.74502837 L61.4553265,2.74502837 C60.7980306,2.70914127 60.1607804,2.97803125 59.7272969,3.47417654 C59.2946327,4.01433289 59.0717756,4.69306088 59.0998958,5.38497363 L59.0998958,11.6706597 C59.0656344,12.3548345 59.2750789,13.0289631 59.6908948,13.5728786 C60.1093494,14.0619003 60.7320052,14.3268913 61.373957,14.2891594 L66.0120141,14.2891594 C66.5830276,14.2891594 66.8685343,14.5851078 66.8685343,15.1770045 C66.8685343,15.8003547 66.5830276,16.111315 66.0120141,16.1098853 L61.2411964,16.1120298 Z" id="Shape"></path>
                        <path d="M70.8449295,12.466289 C70.8216159,12.9619356 70.9558094,13.4522233 71.2282223,13.8666824 C71.4837508,14.224108 71.9198624,14.4028208 72.5365569,14.4028208 L72.8748824,14.4028208 C73.0807151,14.3947588 73.2806979,14.4723893 73.427338,14.6172761 C73.5846255,14.8038122 73.661631,15.0452056 73.641468,15.2885213 C73.6592597,15.5409254 73.5778006,15.7902919 73.4144902,15.9833566 C73.2750736,16.1378326 73.0763638,16.2252416 72.8684585,16.2235466 L72.4808831,16.2235466 C71.3388562,16.2235466 70.4709157,15.9197349 69.8770616,15.3121114 C69.2832076,14.7044879 68.9841393,13.7558805 68.9798567,12.466289 L68.9798567,0.965049038 C68.9787609,0.769017242 69.0558407,0.580656778 69.1939867,0.441778004 C69.3958681,0.27030065 69.6586141,0.188261299 69.9220289,0.214455342 C70.1736155,0.194855968 70.4225999,0.276690138 70.613669,0.441778004 C70.7599973,0.576447843 70.84378,0.76602211 70.8449295,0.965049038 L70.8449295,12.466289 Z" id="Shape"></path>
                        <path d="M75.6992579,5.45359934 C75.9576099,5.43412298 76.2127425,5.52084498 76.4058871,5.69378932 C76.5465687,5.81864177 76.6314096,5.99476104 76.6414301,6.1827475 L76.6414301,12.1038595 C76.6322942,12.4521249 76.6987788,12.7982237 76.8362885,13.1182333 C76.9528044,13.3828049 77.128664,13.6169066 77.3502006,13.8023458 C77.5681514,13.9793439 77.821556,14.1073358 78.0932319,14.1776426 C78.3802869,14.2543086 78.6762224,14.2925285 78.9733065,14.291304 L82.1702682,14.291304 L82.1702682,6.21920491 C82.1773518,6.03496692 82.2538628,5.86025692 82.3843983,5.73024673 C82.5780335,5.55228756 82.8379794,5.46498767 83.0995927,5.49005675 C83.3515855,5.472468 83.6004894,5.55402322 83.7933741,5.71737941 C83.9409064,5.84290745 84.028117,6.02539228 84.0331997,6.21920491 L84.0331997,15.0869333 C84.0218157,15.3222742 83.9478929,15.5503023 83.8190697,15.7474557 C83.6763163,15.9905051 83.4072262,16.1120298 83.0117993,16.1120298 L78.8940783,16.1120298 C77.6349936,16.1120298 76.63572,15.7781943 75.8962575,15.1105234 C75.1567951,14.4428524 74.7856363,13.4420608 74.7827812,12.1081486 L74.7827812,6.18060295 C74.7902846,5.99646184 74.8667313,5.82189864 74.9969113,5.69164477 C75.1865314,5.51580497 75.4419849,5.42922444 75.6992579,5.45359934 Z" id="Shape"></path>
                        <path d="M95.319995,7.83834274 C95.127805,7.36462677 94.8356237,6.93812559 94.4634748,6.5880681 C94.0883901,6.27676119 93.6498968,6.05132605 93.1786945,5.92754565 C92.6454209,5.78695224 92.0931328,5.73265311 91.5427408,5.76670414 L88.1808989,5.76670414 L88.1808989,0.969338145 C88.1686303,0.776714224 88.0827414,0.596227079 87.9410733,0.465368092 C87.7463477,0.296071606 87.4913119,0.213252543 87.2344441,0.235900876 C86.9704097,0.217689688 86.709777,0.303929237 86.5085432,0.476090859 C86.3574791,0.595978327 86.2622476,0.772773206 86.2451632,0.965049038 L86.2451632,15.0869333 C86.2519477,15.3526024 86.3256008,15.6122551 86.4592933,15.8418161 C86.5941296,16.0937399 86.8508966,16.2564975 87.1359443,16.2707268 L91.4570888,16.2707268 C92.0018229,16.2463939 92.5390628,16.1341481 93.0480751,15.938321 C93.5341478,15.7662611 93.9821517,15.5011294 94.3671163,15.1577036 C94.7664253,14.8167188 95.0840389,14.3901475 95.2964407,13.9095735 C95.5323513,13.3683044 95.6554902,12.7845128 95.6583205,12.1939307 L95.6583205,9.58829833 C95.6611555,8.98840976 95.5462004,8.39381545 95.319995,7.83834274 Z M93.8960302,11.7371409 L89.5470487,14.7094919 C89.2765496,14.8949852 88.9252614,14.9136456 88.636688,14.7578502 C88.3481147,14.6020548 88.1705831,14.2978944 88.1766163,13.969621 L88.1766163,8.02277434 C88.1705831,7.69450087 88.3481147,7.39034045 88.636688,7.23454507 C88.9252614,7.07874969 89.2765496,7.09741011 89.5470487,7.28290341 L93.908878,10.257399 C94.1522421,10.4259717 94.2964175,10.7043403 94.2938445,11.0006785 C94.2912716,11.2970167 94.1422845,11.5728321 93.8960302,11.7371409 Z" id="Shape"></path>
                    </g>
                </g>
                <text id="Travel-Easy" font-family="Ubuntu-Regular, Ubuntu" font-size="10" font-weight="normal">
                    <tspan x="45" y="33">Travel Easy</tspan>
                </text>
            </g>
            <path d="M8.15428243,45.0287565 C6.54494663,46.1306761 4.45495501,46.241528 2.73808611,45.3160284 C1.0212172,44.3905287 -0.0350081243,42.5836692 0.000886745666,40.6335667 L0.000886745666,5.30643194 C-0.0350081243,3.35632939 1.0212172,1.54946991 2.73808611,0.623970263 C4.45495501,-0.30152938 6.54494663,-0.190677472 8.15428243,0.911242083 L34.1050121,18.5811793 C35.5529085,19.5825827 36.4106807,21.2362262 36.3953729,22.9966177 C36.3800652,24.7570092 35.4936658,26.395486 34.028574,27.371559 L8.15428243,45.0287565 Z" id="Path" stroke="#29ABE2" stroke-width="4"></path>
        </g>
    </g>
</svg>