<?xml version="1.0" encoding="UTF-8"?>
<svg width="42px" height="42px" viewBox="0 0 42 42" version="1.1" xmlns="http://www.w3.org/2000/svg" xmlns:xlink="http://www.w3.org/1999/xlink">
    <!-- Generator: Sketch 48.2 (47327) - http://www.bohemiancoding.com/sketch -->
    <title>ic_driporter</title>
    <desc>Created with Sketch.</desc>
    <defs></defs>
    <g id="Dashboard---Configure" stroke="none" stroke-width="1" fill="none" fill-rule="evenodd" transform="translate(-19.000000, -274.000000)">
        <g id="ic_driporter" transform="translate(20.000000, 275.000000)">
            <circle id="Oval-2" stroke="#979797" cx="20" cy="20" r="20"></circle>
            <g id="ic_captain" transform="translate(10.000000, 10.000000)" fill="#000000" fill-opacity="0.5" fill-rule="nonzero">
                <g id="Group">
                    <path d="M14,4.66666667 L14,4.2 C13.9093333,4.14466667 13.8053333,4.09266667 13.678,4.04666667 C13.6186667,4.02466667 13.544,4.00666667 13.476,3.98666667 C12.762,3.77666667 11.612,3.66733333 10,3.66733333 C8.38733333,3.66733333 7.23733333,3.77733333 6.524,3.98666667 C6.456,4.00666667 6.38133333,4.02466667 6.322,4.04666667 C6.19466667,4.09333333 6.08933333,4.14466667 6,4.2 L6,4.66666667 L14,4.66666667 Z" id="Shape"></path>
                    <path d="M10,13.3333333 C11.3326667,13.3333333 12.1206667,11.8433333 12.1213333,11.8426667 C12.032,11.5366667 12.0853333,11.206 12.4166667,10.8746667 C12.9046667,10.386 13.194,9.50066667 13.368,8.54133333 C13.65,8.52866667 14.0213333,7.922 14.2226667,7.11066667 C14.4386667,6.248 14.3813333,5.48933333 14.0926667,5.418 C14.0633333,5.41066667 14.0313333,5.41533333 14,5.42266667 C13.8786667,5.44933333 13.7446667,5.574 13.616,5.77533333 C13.6193333,5.61666667 13.622,5.46933333 13.6233333,5.33266667 L13.3333333,5.33266667 L6.66666667,5.33266667 L6.37666667,5.33266667 C6.378,5.46933333 6.38,5.61666667 6.384,5.776 C6.25466667,5.57533333 6.12066667,5.45 6,5.42266667 C5.968,5.41533333 5.936,5.41066667 5.90666667,5.418 C5.618,5.48933333 5.56066667,6.248 5.77733333,7.11066667 C5.97933333,7.922 6.34933333,8.52866667 6.632,8.54133333 C6.80533333,9.50066667 7.094,10.386 7.58333333,10.8746667 C7.91466667,11.206 7.968,11.536 7.87866667,11.8426667 C7.87866667,11.8433333 8.66666667,13.3333333 10,13.3333333 Z" id="Shape"></path>
                    <path d="M14.4453333,3.68933333 C15.0053333,3.36866667 15.3333333,3.00666667 15.3333333,2.66666667 C15.3333333,1.746 12.9453333,0 10,0 C7.054,0 4.66666667,1.746 4.66666667,2.66666667 C4.66666667,3.00666667 4.994,3.36866667 5.55466667,3.68933333 C5.68333333,3.60133333 5.83266667,3.52333333 6,3.45533333 C6.25,3.35466667 6.53666667,3.274 6.85533333,3.21133333 C7.73733333,3.04 8.84866667,2.99933333 10,2.99933333 C11.1506667,2.99933333 12.262,3.04 13.1446667,3.21133333 C13.464,3.27333333 13.75,3.354 14,3.45533333 C14.1673333,3.52333333 14.316,3.60133333 14.4453333,3.68933333 Z M10,0.666666667 C10.736,0.666666667 11.3333333,0.965333333 11.3333333,1.33333333 C11.3333333,1.38133333 11.322,1.428 11.3033333,1.47266667 C11.1746667,1.774 10.64,2 10,2 C9.35933333,2 8.82466667,1.774 8.69666667,1.47266667 C8.678,1.428 8.66666667,1.38133333 8.66666667,1.33333333 C8.66666667,0.965333333 9.264,0.666666667 10,0.666666667 Z" id="Shape"></path>
                    <path d="M5.616,13.616 C4.45066667,14.1113333 2.34666667,15.0526667 1.59733333,15.6946667 C0.54,16.6006667 0.388666667,19.32 0.388666667,19.32 L8.85066667,19.32 L6.75133333,17.7446667 L5.616,13.616 Z" id="Shape"></path>
                    <path d="M11.148,19.3193333 L19.722,19.3193333 C19.722,19.3193333 19.5706667,16.6006667 18.5133333,15.694 C17.7433333,15.034 15.538,14.0566667 14.394,13.5733333 L13.248,17.7433333 L11.148,19.3193333 Z" id="Shape"></path>
                    <path d="M10,14 C8.696,14 7.736,12.9473333 7.37333333,12.2833333 L6.23866667,13.3613333 L6.238,13.3613333 L6.238,13.362 L6.24,13.3693333 L7.334,17.3473333 L9.06733333,18.6473333 L9.464,16.6806667 L8.66666667,15.3333333 L10,14.6666667 L11.3333333,15.3333333 L10.5366667,16.6806667 L10.9333333,18.6473333 L12.6673333,17.3473333 L13.754,13.3946667 L13.7633333,13.362 L13.7633333,13.3613333 L13.7626667,13.3613333 L12.6333333,12.2886667 C12.3666667,12.7213333 11.4586667,14 10,14 Z" id="Shape"></path>
                </g>
            </g>
        </g>
    </g>
</svg>