<?xml version="1.0" encoding="UTF-8"?>
<svg width="42px" height="42px" viewBox="0 0 42 42" version="1.1" xmlns="http://www.w3.org/2000/svg" xmlns:xlink="http://www.w3.org/1999/xlink">
    <!-- Generator: Sketch 48.2 (47327) - http://www.bohemiancoding.com/sketch -->
    <title>ic_growth</title>
    <desc>Created with Sketch.</desc>
    <defs></defs>
    <g id="Dashboard---Configure" stroke="none" stroke-width="1" fill="none" fill-rule="evenodd" transform="translate(-19.000000, -705.000000)">
        <g id="ic_growth" transform="translate(20.000000, 706.000000)">
            <circle id="Oval-5" stroke="#979797" cx="20" cy="20" r="20"></circle>
            <g id="Group-4" transform="translate(10.833333, 10.833333)">
                <path d="M17.1878436,1.14579597 L10.0263338,1.14579597 L10.0263338,0.859438638 C10.0263338,0.38462079 9.64169273,0 9.16684991,0 C8.69200708,0 8.30736606,0.38462079 8.30736606,0.859438638 L8.30736606,1.14579597 L1.14585624,1.14579597 C0.512243573,1.14579597 0,1.65837925 0,2.29159193 L0,13.1768369 C0,13.8104163 0.512243573,14.3226329 1.14585624,14.3226329 L6.84287012,14.3226329 L5.27167204,17.0439441 C5.03406729,17.4549641 5.17487011,17.9803803 5.58591166,18.2176059 C5.99731988,18.4544648 6.52239704,18.3144027 6.75963512,17.9033828 L8.82694311,14.3226329 L9.50602335,14.3226329 L11.5733313,17.9033828 C11.8109361,18.3147694 12.3363799,18.4555648 12.7474215,18.2176059 C13.1588297,17.9803803 13.2988992,17.4549641 13.0616611,17.0439441 L11.490463,14.3226329 L17.1874769,14.3226329 C17.8210896,14.3226329 18.3333331,13.8104163 18.3333331,13.1768369 L18.3333331,2.29159193 C18.3336998,1.65837925 17.8214562,1.14579597 17.1878436,1.14579597 Z" id="Path" fill-opacity="0.5" fill="#000000"></path>
                <polygon id="Path-3" fill="#FFFFFF" points="4.23578095 12.3216799 7.32496948 9.17503608 8.28740284 10.2199053 11.340256 7.12435811 13.2839717 9.17503608 13.2839717 4.12033063 8.28740284 4.12033063 10.1480014 6.11446166 8.13314628 8.11642014 7.18423799 7.12435811 3.19238242 11.186101"></polygon>
            </g>
        </g>
    </g>
</svg>