<?xml version="1.0" encoding="UTF-8"?>
<svg width="42px" height="42px" viewBox="0 0 42 42" version="1.1" xmlns="http://www.w3.org/2000/svg" xmlns:xlink="http://www.w3.org/1999/xlink">
    <!-- Generator: Sketch 48.2 (47327) - http://www.bohemiancoding.com/sketch -->
    <title>ic_ops</title>
    <desc>Created with Sketch.</desc>
    <defs></defs>
    <g id="Dashboard---Configure" stroke="none" stroke-width="1" fill="none" fill-rule="evenodd" transform="translate(-19.000000, -617.000000)">
        <g id="ic_ops" transform="translate(20.000000, 618.000000)">
            <circle id="Oval-5" stroke="#979797" cx="20" cy="20" r="20"></circle>
            <g id="ic_captain" transform="translate(10.000000, 11.000000)" fill="#000000" fill-opacity="0.5">
                <g id="Group">
                    <path d="M10,12.3333333 C11.3326667,12.3333333 12.1206667,10.8433333 12.1213333,10.8426667 C12.032,10.5366667 12.0853333,10.206 12.4166667,9.87466667 C12.9046667,9.386 13.194,8.50066667 13.368,7.54133333 C13.65,7.52866667 14.0213333,6.922 14.2226667,6.11066667 C14.4386667,5.248 14.3813333,4.48933333 14.0926667,4.418 C14.0633333,4.41066667 14.0313333,4.41533333 14,4.42266667 C13.8786667,4.44933333 13.7446667,4.574 13.616,4.77533333 C13.6193333,4.61666667 13.622,4.46933333 13.6233333,4.33266667 L13.3333333,4.33266667 L6.66666667,4.33266667 L6.37666667,4.33266667 C6.378,4.46933333 6.38,4.61666667 6.384,4.776 C6.25466667,4.57533333 6.12066667,4.45 6,4.42266667 C5.968,4.41533333 5.936,4.41066667 5.90666667,4.418 C5.618,4.48933333 5.56066667,5.248 5.77733333,6.11066667 C5.97933333,6.922 6.34933333,7.52866667 6.632,7.54133333 C6.80533333,8.50066667 7.094,9.386 7.58333333,9.87466667 C7.91466667,10.206 7.968,10.536 7.87866667,10.8426667 C7.87866667,10.8433333 8.66666667,12.3333333 10,12.3333333 Z" id="Shape" fill-rule="nonzero"></path>
                    <path d="M14.4453333,3.68933333 C15.0053333,3.36866667 12.9453333,0 10,0 C7.054,0 4.994,3.36866667 5.55466667,3.68933333 C5.68333333,3.60133333 5.83266667,3.52333333 6,3.45533333 C6.25,3.35466667 6.53666667,3.274 6.85533333,3.21133333 C7.73733333,3.04 8.84866667,2.99933333 10,2.99933333 C11.1506667,2.99933333 12.262,3.04 13.1446667,3.21133333 C13.464,3.27333333 13.75,3.354 14,3.45533333 C14.1673333,3.52333333 14.316,3.60133333 14.4453333,3.68933333 Z" id="Path"></path>
                    <path d="M5.616,12.616 C4.45066667,13.1113333 2.34666667,14.0526667 1.59733333,14.6946667 C0.54,15.6006667 0.388666667,18.32 0.388666667,18.32 L8.85066667,18.32 L6.75133333,16.7446667 L5.616,12.616 Z" id="Shape" fill-rule="nonzero"></path>
                    <path d="M11.148,18.3193333 L19.722,18.3193333 C19.722,18.3193333 19.5706667,15.6006667 18.5133333,14.694 C17.7433333,14.034 15.538,13.0566667 14.394,12.5733333 L13.248,16.7433333 L11.148,18.3193333 Z" id="Shape" fill-rule="nonzero"></path>
                    <path d="M10,13 C8.696,13 7.736,11.9473333 7.37333333,11.2833333 L6.23866667,12.3613333 L7.334,16.3473333 L9.06733333,17.6473333 L9.464,15.6806667 L10,13.6666667 L10.5366667,15.6806667 L10.9333333,17.6473333 L12.6673333,16.3473333 L13.754,12.3946667 L13.7633333,12.362 L12.6333333,11.2886667 C12.3666667,11.7213333 11.4586667,13 10,13 Z" id="Shape" fill-rule="nonzero"></path>
                </g>
            </g>
        </g>
    </g>
</svg>