<?xml version="1.0" encoding="UTF-8"?>
<svg width="42px" height="42px" viewBox="0 0 42 42" version="1.1" xmlns="http://www.w3.org/2000/svg" xmlns:xlink="http://www.w3.org/1999/xlink">
    <!-- Generator: Sketch 48.2 (47327) - http://www.bohemiancoding.com/sketch -->
    <title>ic_report</title>
    <desc>Created with Sketch.</desc>
    <defs></defs>
    <g id="Dashboard---Configure" stroke="none" stroke-width="1" fill="none" fill-rule="evenodd" transform="translate(-19.000000, -529.000000)">
        <g id="ic_report" transform="translate(20.000000, 530.000000)">
            <circle id="Oval-5" stroke="#979797" cx="20" cy="20" r="20"></circle>
            <g id="Group-4" transform="translate(10.833333, 10.833333)">
                <path d="M17.1878436,1.14579597 L10.0263338,1.14579597 L10.0263338,0.859438638 C10.0263338,0.38462079 9.64169273,0 9.16684991,0 C8.69200708,0 8.30736606,0.38462079 8.30736606,0.859438638 L8.30736606,1.14579597 L1.14585624,1.14579597 C0.512243573,1.14579597 0,1.65837925 0,2.29159193 L0,13.1768369 C0,13.8104163 0.512243573,14.3226329 1.14585624,14.3226329 L6.84287012,14.3226329 L5.27167204,17.0439441 C5.03406729,17.4549641 5.17487011,17.9803803 5.58591166,18.2176059 C5.99731988,18.4544648 6.52239704,18.3144027 6.75963512,17.9033828 L8.82694311,14.3226329 L9.50602335,14.3226329 L11.5733313,17.9033828 C11.8109361,18.3147694 12.3363799,18.4555648 12.7474215,18.2176059 C13.1588297,17.9803803 13.2988992,17.4549641 13.0616611,17.0439441 L11.490463,14.3226329 L17.1874769,14.3226329 C17.8210896,14.3226329 18.3333331,13.8104163 18.3333331,13.1768369 L18.3333331,2.29159193 C18.3336998,1.65837925 17.8214562,1.14579597 17.1878436,1.14579597 Z" id="Path" fill-opacity="0.5" fill="#000000"></path>
                <polygon id="Path" fill="#FFFFFF" points="8.40277778 6.11111111 10.6944444 6.11111111 10.6944444 12.2222222 8.40277778 12.2222222"></polygon>
                <polygon id="Path" fill="#FFFFFF" points="3.81944444 8.40277778 6.11111111 8.40277778 6.11111111 12.2222222 3.81944444 12.2222222"></polygon>
                <polygon id="Path" fill="#FFFFFF" points="12.2222222 3.81944444 14.5138889 3.81944444 14.5138889 12.2222222 12.2222222 12.2222222 12.2222222 3.81944444"></polygon>
                <path d="M5.87541828,7.63888889 L3.29124759,7.63888889 C3.1615832,7.63888889 3.05555556,7.74602554 3.05555556,7.87772856 L3.05555556,11.9837237 C3.05555556,12.1154268 3.1615832,12.2222222 3.29124759,12.2222222 L5.87541828,12.2222222 C6.00508266,12.2222222 6.11111031,12.1154268 6.11111031,11.9837237 L6.11111031,7.87772856 C6.11144798,7.74602554 6.004745,7.63888889 5.87541828,7.63888889 Z" id="Path" fill="#FFFFFF"></path>
                <path d="M10.4579986,5.34722222 L7.87533471,5.34722222 C7.74427617,5.34722222 7.63888889,5.4565488 7.63888889,5.59137327 L7.63888889,11.9780712 C7.63888889,12.1125464 7.74461395,12.2222222 7.87533471,12.2222222 L10.4579986,12.2222222 C10.5890572,12.2222222 10.6944444,12.1128956 10.6944444,11.9780712 L10.6944444,5.59102398 C10.6944444,5.4565488 10.5887194,5.34722222 10.4579986,5.34722222 Z" id="Path" fill="#FFFFFF"></path>
                <path d="M14.2778852,3.05555556 L11.694337,3.05555556 C11.5643493,3.05555556 11.4583333,3.1685732 11.4583333,3.30714579 L11.4583333,11.970632 C11.4583333,12.1092046 11.5643493,12.2222222 11.694337,12.2222222 L14.2778852,12.2222222 C14.4082106,12.2222222 14.5138889,12.1095645 14.5138889,11.970632 L14.5138889,3.30714579 C14.5135513,3.1685732 14.4082106,3.05555556 14.2778852,3.05555556 Z" id="Path" fill="#FFFFFF"></path>
            </g>
        </g>
    </g>
</svg>