<?xml version="1.0" encoding="UTF-8"?>
<svg width="42px" height="42px" viewBox="0 0 42 42" version="1.1" xmlns="http://www.w3.org/2000/svg" xmlns:xlink="http://www.w3.org/1999/xlink">
    <!-- Generator: Sketch 49.2 (51160) - http://www.bohemiancoding.com/sketch -->
    <title>ic_trackBooking</title>
    <desc>Created with Sketch.</desc>
    <defs></defs>
    <g id="Web-Portal-Wireframe" stroke="none" stroke-width="1" fill="none" fill-rule="evenodd">
        <g id="ic_trackBooking" transform="translate(1.000000, 1.000000)">
            <circle id="Oval-5-Copy" stroke="#979797" cx="20" cy="20" r="20"></circle>
            <g id="ic_my_location_white_24px" transform="translate(10.000000, 10.000000)">
                <polygon id="Shape" points="0 0 20 0 20 20 0 20"></polygon>
                <path d="M10,6.66666667 C8.15833333,6.66666667 6.66666667,8.15833333 6.66666667,10 C6.66666667,11.8416667 8.15833333,13.3333333 10,13.3333333 C11.8416667,13.3333333 13.3333333,11.8416667 13.3333333,10 C13.3333333,8.15833333 11.8416667,6.66666667 10,6.66666667 Z M17.45,9.16666667 C17.0666667,5.69166667 14.3083333,2.93333333 10.8333333,2.55 L10.8333333,0.833333333 L9.16666667,0.833333333 L9.16666667,2.55 C5.69166667,2.93333333 2.93333333,5.69166667 2.55,9.16666667 L0.833333333,9.16666667 L0.833333333,10.8333333 L2.55,10.8333333 C2.93333333,14.3083333 5.69166667,17.0666667 9.16666667,17.45 L9.16666667,19.1666667 L10.8333333,19.1666667 L10.8333333,17.45 C14.3083333,17.0666667 17.0666667,14.3083333 17.45,10.8333333 L19.1666667,10.8333333 L19.1666667,9.16666667 L17.45,9.16666667 Z M10,15.8333333 C6.775,15.8333333 4.16666667,13.225 4.16666667,10 C4.16666667,6.775 6.775,4.16666667 10,4.16666667 C13.225,4.16666667 15.8333333,6.775 15.8333333,10 C15.8333333,13.225 13.225,15.8333333 10,15.8333333 Z" id="Shape" fill-opacity="0.5" fill="#000000" fill-rule="nonzero"></path>
            </g>
        </g>
    </g>
</svg>