<?xml version="1.0" encoding="UTF-8"?>
<svg width="42px" height="42px" viewBox="0 0 42 42" version="1.1" xmlns="http://www.w3.org/2000/svg" xmlns:xlink="http://www.w3.org/1999/xlink">
    <!-- Generator: Sketch 48.2 (47327) - http://www.bohemiancoding.com/sketch -->
    <title>ic_vehicle</title>
    <desc>Created with Sketch.</desc>
    <defs></defs>
    <g id="Dashboard---Configure" stroke="none" stroke-width="1" fill="none" fill-rule="evenodd" transform="translate(-19.000000, -359.000000)">
        <g id="ic_vehicle" transform="translate(20.000000, 360.000000)">
            <circle id="Oval-5" stroke="#979797" fill="#FFFFFF" cx="20" cy="20" r="20"></circle>
            <g id="ic_directions_car_white_24px" transform="translate(9.166667, 9.166667)">
                <path d="M17.0805556,4.52291667 C16.9,3.99027778 16.3944444,3.61111111 15.7986111,3.61111111 L5.86805556,3.61111111 C5.27222222,3.61111111 4.77569444,3.99027778 4.58611111,4.52291667 L2.70833333,9.93055556 L2.70833333,17.1527778 C2.70833333,17.6493056 3.11458333,18.0555556 3.61111111,18.0555556 L4.51388889,18.0555556 C5.01041667,18.0555556 5.41666667,17.6493056 5.41666667,17.1527778 L5.41666667,16.25 L16.25,16.25 L16.25,17.1527778 C16.25,17.6493056 16.65625,18.0555556 17.1527778,18.0555556 L18.0555556,18.0555556 C18.5520833,18.0555556 18.9583333,17.6493056 18.9583333,17.1527778 L18.9583333,9.93055556 L17.0805556,4.52291667 Z M5.86805556,13.5416667 C5.11875,13.5416667 4.51388889,12.9368056 4.51388889,12.1875 C4.51388889,11.4381944 5.11875,10.8333333 5.86805556,10.8333333 C6.61736111,10.8333333 7.22222222,11.4381944 7.22222222,12.1875 C7.22222222,12.9368056 6.61736111,13.5416667 5.86805556,13.5416667 Z M15.7986111,13.5416667 C15.0493056,13.5416667 14.4444444,12.9368056 14.4444444,12.1875 C14.4444444,11.4381944 15.0493056,10.8333333 15.7986111,10.8333333 C16.5479167,10.8333333 17.1527778,11.4381944 17.1527778,12.1875 C17.1527778,12.9368056 16.5479167,13.5416667 15.7986111,13.5416667 Z M4.51388889,9.02777778 L5.86805556,4.96527778 L15.7986111,4.96527778 L17.1527778,9.02777778 L4.51388889,9.02777778 Z" id="Shape" fill-opacity="0.5" fill="#000000" fill-rule="nonzero"></path>
                <polygon id="Shape" points="0 0 21.6666667 0 21.6666667 21.6666667 0 21.6666667"></polygon>
            </g>
        </g>
    </g>
</svg>